<svg xmlns="http://www.w3.org/2000/svg" width="1200" height="700" viewBox="0 0 1200 700">
  <rect width="1200" height="700" fill="#f8fafc"/>
  <rect x="70" y="60" width="1060" height="580" rx="18" fill="#ffffff" stroke="#dfe7f0" stroke-width="2"/>
  <rect x="120" y="110" width="900" height="60" rx="8" fill="#0f172a"/>
  <text x="170" y="148" fill="#ffffff" font-family="Arial, sans-serif" font-size="28" font-weight="700">Flyrank A4 Auth API</text>
  <rect x="120" y="210" width="220" height="42" rx="8" fill="#eef2ff"/>
  <text x="155" y="238" fill="#312e81" font-family="Arial, sans-serif" font-size="22" font-weight="700">Authorize</text>
  <rect x="120" y="290" width="920" height="220" rx="10" fill="#f8fafc" stroke="#dfe7f0"/>
  <rect x="150" y="320" width="200" height="38" rx="4" fill="#e2e8f0"/>
  <text x="170" y="345" fill="#334155" font-family="Arial, sans-serif" font-size="18">/protected/profile</text>
  <rect x="150" y="380" width="250" height="42" rx="6" fill="#64d2ff"/>
  <text x="190" y="407" fill="#0f172a" font-family="Arial, sans-serif" font-size="18" font-weight="700">Try it out</text>
  <rect x="150" y="450" width="730" height="36" rx="8" fill="#ffffff" stroke="#cbd5e1"/>
  <text x="170" y="473" fill="#475569" font-family="Arial, sans-serif" font-size="18">Authorization: Bearer &lt;JWT&gt;</text>
  <circle cx="920" cy="260" r="28" fill="#22c55e"/>
  <path d="M907 260 L918 271 L934 249" fill="none" stroke="#ffffff" stroke-width="6" stroke-linecap="round" stroke-linejoin="round"/>
  <text x="860" y="338" fill="#166534" font-family="Arial, sans-serif" font-size="22" font-weight="700">Protected</text>
</svg>
